<svg xmlns="http://www.w3.org/2000/svg" viewBox="0 0 114 142" enable-background="new 0 0 114 142"><style type="text/css">.st0{fill:#B8442F;} .st1{opacity:0.85;}</style><path class="st0" d="M104.4 8.5l-26.5-4.3c-.6-.1-1.2-.1-1.8 0-.6-.2-1.3-.3-2.1-.3-3.4-.1-6.2 2.2-6.3 5.1 0 .5.1 1.1.3 1.6-2 .8-3.5 2.6-3.5 4.6 0 .5.1 1 .2 1.4-1 .9-1.6 2.1-1.7 3.5 0 .3 0 .6.1.9-1.4.9-2.3 2.4-2.3 4 0 .5.2 1 .3 1.5-.5 3.5-.9 6.5-1.1 9.1-5.3-.5-10.6-.8-15.8-1l-3.9-17.3-28.8 1.1-2 17.5-3.8.4-2.2.3c-.7.1-1.3.8-1.4 1.5l-1.4 96.9c0 .7.7 1.5 1.4 1.7l3.7.8c23.5 4.6 47 4.7 69.8.5l.5-.1c.8-.1 1.6-.9 1.6-1.7l1.5-96.9c0-.7-.6-1.4-1.3-1.6h-.4l-.3-.1c-2.3-.4-4.6-.7-6.9-1 .8-2.7 1.5-5.7 2.1-9 .6-.8.9-1.7.9-2.6 0-.3 0-.6-.1-.9 1.4-.9 2.3-2.4 2.3-4 0-.5-.1-1-.2-1.4 1-.9 1.6-2.1 1.7-3.4 0-.2 0-.4-.1-.6l25.8 4.2c2.9.5 5.6-1.5 6.1-4.4.4-2.8-1.5-5.5-4.4-6zm-89.7 26.9l1.9-13.4 18.2.3 3.1 12.2c-7.7-.1-15.5.2-23.2.9z"/><g class="st1"><ellipse transform="matrix(.015 -1 1 .015 86.901 118.705)" cx="103.7" cy="15.2" rx="3.7" ry="3.6"/><path d="M25.5 69.2l-5.8-.1.2-12.3 5.7.1c2.9 0 4.3 1.3 4.2 3.4 0 1-.6 1.9-1.5 2.5v.2c1.1.4 1.8 1.4 1.7 2.6.1 2.3-1.6 3.6-4.5 3.6zm0-9.7h-2.7v2.4h2.6c.8 0 1.3-.5 1.3-1.2s-.5-1.2-1.2-1.2zm-2.7 4.5v2.5h2.8c.8 0 1.3-.6 1.3-1.2s-.5-1.2-1.2-1.3h-2.9zM36.8 57.1c2.8 0 4.7 1.8 4.7 4.2 0 1.7-.9 3-2.3 3.6v.2l2.7 4.1v.2l-3.4-.1-2.5-4.1h-1.7l-.1 4h-3l.2-12.2 5.4.1zm-.2 2.6h-2.2v3.2h2.3c1 0 1.8-.5 1.9-1.6-.2-1.1-1-1.6-2-1.6zM55.5 69.6h-3.2l-.7-2.2-4.7-.1-.8 2.2h-3.2l4.9-12.2h3.2l4.5 12.3zm-7.8-4.6h3.1l-1.5-4.6-1.6 4.6zM67.7 69.8h-2.3l-5.8-7.2-.1 7.2h-2.9l.2-12.3h2.3l5.8 7.1.1-7h2.9l-.2 12.2zM74 69.9l-4.7-.1.2-12.3 4.7.1c3.9.1 6.4 2.7 6.3 6.2 0 3.6-2.5 6.2-6.5 6.1zm-1.6-9.7l-.1 7.2h1.5c2 0 3.6-1.3 3.7-3.5 0-2.4-1.6-3.6-3.5-3.6l-1.6-.1zM31.9 87l-3.3-.1-.8-2.3-4.8-.1-.8 2.3-3.3-.1 5.1-12.7 3.4.1 4.5 12.9zm-8.1-4.9h3.2l-1.5-4.7-1.7 4.7zM43.6 85.9s-1.4 1.6-4.4 1.5c-4.1-.1-6.5-3.1-6.5-6.8.1-3.7 2.5-6.6 6.7-6.5 3 0 4.3 1.6 4.3 1.6l-1.8 2.3s-.8-1-2.5-1c-2 0-3.4 1.4-3.5 3.6 0 2.2 1.4 3.7 3.4 3.7 1.7 0 2.6-.9 2.6-.9l1.7 2.5zM55.4 86.1s-1.4 1.6-4.4 1.5c-4.1-.1-6.5-3.1-6.5-6.8.1-3.7 2.5-6.6 6.7-6.5 3 0 4.3 1.6 4.3 1.6l-1.8 2.3s-.8-1-2.5-1c-2 0-3.4 1.4-3.5 3.6 0 2.2 1.4 3.7 3.4 3.7 1.7 0 2.6-.9 2.6-.9l1.7 2.5zM66.4 82.3l-5.2-.1v2.6l6.2.1v2.7l-9.3-.1.2-12.7 9.3.1v2.7l-6.2-.1v2.4l5.2.1-.2 2.3zM70.9 87.6l.2-12.7h3.1l-.2 10.1 5.7.1v2.7l-8.8-.2zM28.1 99.4l-5.2-.1v2.6l6.1.1v2.7l-9.3-.1.2-12.7 9.3.1v2.7l-6.2-.1v2.4l5.2.1-.1 2.3zM36.2 92c2.9 0 4.9 1.9 4.8 4.4 0 1.8-1 3.1-2.4 3.7v.2l2.8 4.3v.2l-3.5-.1-2.6-4.2h-1.8l-.1 4.2h-3.1l.2-12.7h5.7zm-.2 2.7h-2.3l-.1 3.3h2.4c1.1 0 1.9-.5 1.9-1.6 0-1.2-.8-1.7-1.9-1.7zM55.4 105.1l-3.3-.1-.8-2.3-4.9-.1-.8 2.3-3.3-.1 5.1-12.7 3.4.1 4.6 12.9zm-8.1-4.9h3.2l-1.5-4.7-1.7 4.7zM67.9 105.2h-2.4l-6-7.5-.1 7.4h-3.1l.2-12.7h2.4l6 7.4.1-7.3h3.1l-.2 12.7zM69.5 92.5l10.3.2v2.7l-3.6-.1-.2 10.1h-3.1l.1-10.2-3.6-.1.1-2.6zM51.5 39.2s-8.4 3.8-8.4 9.5 4 6.4 6.8 6.4 6.5-1.9 6.5-5.1c0-3.2-2.6-4.6-2.6-4.6s-1.1 4.2-3.7 1.7c-2.6-2.6 1.4-7.9 1.4-7.9zM105.3 5.5l-23-3.8c-.7-.1-1.3-.1-2-.1-.7-.2-1.4-.2-2.2-.2-5.4-.1-10 3.6-10.7 8.5-1.7 1.7-2.8 3.9-2.9 6.3-.5.9-.9 2-1.1 3.1-1.3 1.6-2 3.6-2.1 5.7v.4c-2.2-.1-4.5-.1-6.8-.1l-2.5-11.1-32.5 1.7-1 10.6c-2.6.2-4.2.3-4.6.4-4.3.7-7.9 4.8-7.9 9.4v85.9c0 4.6 3.5 8.7 8 9.5h.3c1.2.1 20.8 2.1 40.3 2.1 10 0 19.9-.5 27.5-2 4.8-.6 8.6-4.7 8.6-9.6v-85.9c0-4.7-3.6-8.8-8.2-9.4 0-.1 0-.2.1-.2 1.1-1.3 1.8-2.9 2-4.6l17.7 2.9c2.6.4 5.2-.2 7.3-1.7 2.1-1.5 3.5-3.8 4-6.4.7-5.5-2.9-10.5-8.3-11.4zm-81.9 14.3l25.5-1.3 1.5 6.8c-1.9 0-3.8 0-5.6.1l-.8-2.5h-16.1l-.6 3.1c-1.6.1-3.1.2-4.5.3l.6-6.5zm59.1 102.4c0 .7-.6 1.3-1.2 1.5l-.6.1c-20.3 4.1-62.1.2-65.3-.1-.6-.2-1.2-.8-1.2-1.4v-8.9c5.9 1.1 11.7 2 17.6 2.6 16.9 1.7 33.6 1.2 50.8-1.5v7.7zm0-85.9v75.9c-23 3.7-45.5 3.3-68.3-1.2v-74.7c0-.6.6-1.3 1.2-1.3 1.7-.2 29.7-2.3 51.7-1.3 3 .1 5.8.3 8.5.6 1.8.2 3.5.4 5.1.6h.6c.6.1 1.2.7 1.2 1.4zm25.8-20.4c-.4 2.5-2.8 4.2-5.3 3.8l-22.5-3.7.1.6c0 1.2-.6 2.2-1.4 3 .1.4.2.8.2 1.2 0 1.4-.8 2.6-2 3.5.1.3.1.5.1.8 0 .4-.1.7-.2 1.1-3.3-.3-6.9-.6-10.6-.7l-.1-.5c0-1.4.8-2.6 2-3.5-.1-.3-.1-.5-.1-.8 0-1.2.6-2.2 1.4-3-.1-.4-.2-.8-.2-1.2 0-1.8 1.3-3.3 3-4-.2-.4-.3-.9-.3-1.4 0-2.5 2.5-4.5 5.5-4.5.7 0 1.3.1 1.8.3.5-.1 1-.1 1.6 0l23.1 3.7c2.6.4 4.3 2.8 3.9 5.3z"/></g></svg>